<svg xmlns="http://www.w3.org/2000/svg" width="55" height="54" viewBox="0 0 55 54">
    <g fill="none" fill-rule="evenodd">
        <path fill="#DF705A" d="M20.392 5.45c-8.25-3.75-15.75 5.65-10.95 7.6 3.05 1.24 5.25-7 9-5.2 3.75 1.8 1.95-2.4 1.95-2.4"/>
        <path stroke="#663E1E" stroke-width=".9" d="M20.392 5.45c-8.25-3.75-15.75 5.65-10.95 7.6 3.05 1.24 5.25-7 9-5.2 3.75 1.8 1.95-2.4 1.95-2.4z"/>
        <path fill="#FFBC67" d="M22.842 2.65c-11.6-4.6-22.55 2.5-19.25 6.55 3.272 4.017 9.9-7.35 16.2-3.6 1.65.15 3.05-2.95 3.05-2.95"/>
        <path stroke="#663E1E" stroke-width=".9" d="M22.842 2.65c-11.6-4.6-22.55 2.5-19.25 6.55 3.272 4.017 9.9-7.35 16.2-3.6 1.65.15 3.05-2.95 3.05-2.95z"/>
        <path fill="#FFBC67" d="M15.742 40.55c.75-1.65 6.722-10.044 8.85-15.3 2.55-6.3 10.65-8.55 14.55-4.8 3.9 3.75.6 10.2-3.75 14.25-4.086 3.804-14.7 6.9-19.65 5.85"/>
        <path stroke="#663E1E" stroke-width=".9" d="M15.742 40.55c.75-1.65 6.722-10.044 8.85-15.3 2.55-6.3 10.65-8.55 14.55-4.8 3.9 3.75.6 10.2-3.75 14.25-4.086 3.804-14.7 6.9-19.65 5.85z"/>
        <path fill="#CD564E" d="M14.242 38.6c-2.55 4.05-3.75 6.3-9.75 7.2-1.835.275 2.8 2.4 7.75 1.65s10.4-8.7 10.4-8.7l-8.4-.15z"/>
        <path stroke="#663E1E" stroke-width=".9" d="M14.242 38.6c-2.55 4.05-3.75 6.3-9.75 7.2-1.835.275 2.8 2.4 7.75 1.65s10.4-8.7 10.4-8.7l-8.4-.15z"/>
        <path fill="#CD564E" d="M18.142 37.25c-1.2 6.6-8.7 13.95-14.55 14.25-1.854.095 3.563 1.801 8.55 1.35 14.4-1.3 17.8-17 17.8-17l-11.8 1.4z"/>
        <path stroke="#663E1E" stroke-width=".9" d="M18.142 37.25c-1.2 6.6-8.7 13.95-14.55 14.25-1.854.095 3.563 1.801 8.55 1.35 14.4-1.3 17.8-17 17.8-17l-11.8 1.4z"/>
        <path fill="#DF705A" d="M19.642 3.8c3.6-3.6 11.7-3.75 15.45.9s.55 8.05-.05 13.15c2.45 9.35 2.15 21.8-14.8 21.8-15.646 0-7.5-12.15-4.95-16.35 2.55-4.2-1.748-13.402 4.35-19.5"/>
        <path stroke="#663E1E" stroke-width=".9" d="M19.642 3.8c3.6-3.6 11.7-3.75 15.45.9s.55 8.05-.05 13.15c2.45 9.35 2.15 21.8-14.8 21.8-15.646 0-7.5-12.15-4.95-16.35 2.55-4.2-1.748-13.402 4.35-19.5z"/>
        <path fill="#CD564E" d="M22.342 25.15c-1.6 12.3 8.9 10.7 11.22 8.701 0 .002-.034-.001-.018-.003-3.052 4.302-8.454 5.402-13.503 5.402-3.875 0-8.908-.993-9.147-5.774-.234-4.694 8.217-5.532 11.448-8.326"/>
        <path fill="#F6B736" d="M37.042 12.048c0 4.417-1.76 6.556-6.75 7.352-4.668.745-8.6-2.935-8.6-7.352S25.524 4.05 30.25 4.05c4.727 0 6.792 3.581 6.792 7.998"/>
        <path fill="#FFBC67" d="M1.042 40.55c.75-1.65 6.722-10.044 8.85-15.3 2.55-6.3 9.708-9.558 13.95-6.2 4.8 3.8 1.2 11.6-3.15 15.65-4.086 3.804-14.7 6.9-19.65 5.85"/>
        <path stroke="#663E1E" stroke-width=".9" d="M1.042 40.55c.75-1.65 6.722-10.044 8.85-15.3 2.55-6.3 9.708-9.558 13.95-6.2 4.8 3.8 1.2 11.6-3.15 15.65-4.086 3.804-14.7 6.9-19.65 5.85z"/>
        <path stroke="#663E1E" stroke-linecap="round" stroke-linejoin="round" stroke-width=".9" d="M1.042 40.55c2.85-2.4 5.55-4.5 6.75-6"/>
        <path fill="#B49274" d="M36.442 6.95c9.2-.112 16.5 10.05 17.7 14.85-.45 1.05-7.2-3.15-19.05-3.9 0-3.15 1.35-10.95 1.35-10.95"/>
        <path stroke="#524134" stroke-width=".9" d="M36.442 6.95c9.2-.112 16.5 10.05 17.7 14.85-.45 1.05-7.2-3.15-19.05-3.9 0-3.15 1.35-10.95 1.35-10.95z"/>
        <path fill="#8A6F5A" d="M35.642 11.85c8.2.4 9.2 5 18.5 9.95-.45 1.05-6.75-3.562-18.6-4.312 0-3.15.1-5.638.1-5.638"/>
        <path stroke="#524134" stroke-width=".9" d="M35.092 14.45c5.25.15 15 6.9 19.05 7.35"/>
        <path fill="#E8C08A" d="M27.35 42.788h7.518s1.134-6.076-3.605-6.353c-4.738-.276-3.914 6.353-3.914 6.353"/>
        <path stroke="#663E1E" stroke-width=".9" d="M27.35 42.788h7.518s1.134-6.076-3.605-6.353c-4.738-.276-3.914 6.353-3.914 6.353z"/>
        <path fill="#E8C08A" d="M19.35 42.788h7.519s1.133-6.076-3.605-6.353c-4.738-.276-3.914 6.353-3.914 6.353"/>
        <path stroke="#663E1E" stroke-width=".9" d="M19.35 42.788h7.519s1.133-6.076-3.605-6.353c-4.738-.276-3.914 6.353-3.914 6.353z"/>
        <path fill="#FFF" d="M37.47 11.424c0 2.802-2.498 5.074-5.578 5.074s-5.579-2.272-5.579-5.074 2.498-5.074 5.579-5.074c3.08 0 5.578 2.272 5.578 5.074"/>
        <path stroke="#663E1E" stroke-width=".858" d="M37.47 11.424c0 2.802-2.498 5.074-5.578 5.074s-5.579-2.272-5.579-5.074 2.498-5.074 5.579-5.074c3.08 0 5.578 2.272 5.578 5.074z"/>
        <path fill="#323232" d="M34.936 11.527a2.796 2.796 0 1 1-5.591 0 2.796 2.796 0 0 1 5.591 0"/>
        <path fill="#FFF" d="M35.273 11.057a1.483 1.483 0 1 1-2.966-.002 1.483 1.483 0 0 1 2.966.002"/>
    </g>
</svg>
