<svg xmlns="http://www.w3.org/2000/svg" width="46" height="67" viewBox="0 0 46 67">
    <defs>
        <linearGradient id="a" x1="12.895%" x2="93.718%" y1="82.659%" y2="13.75%">
            <stop offset="0%" stop-color="#F6D128"/>
            <stop offset="28.4%" stop-color="#F6C526"/>
            <stop offset="31.23%" stop-color="#F6C026"/>
            <stop offset="50.25%" stop-color="#F4A228"/>
            <stop offset="61.03%" stop-color="#F39729"/>
        </linearGradient>
        <linearGradient id="b" x1="19.766%" x2="69.604%" y1="83.481%" y2="11.955%">
            <stop offset="0%" stop-color="#F39729"/>
            <stop offset="14.87%" stop-color="#F4A228"/>
            <stop offset="41.11%" stop-color="#F6C026"/>
            <stop offset="45.02%" stop-color="#F6C526"/>
            <stop offset="84.29%" stop-color="#F6D128"/>
        </linearGradient>
    </defs>
    <g fill="none" fill-rule="evenodd">
        <path fill="#F39C3D" fill-rule="nonzero" stroke="#274960" stroke-width=".9" d="M18.57 13.21c-5.7-2.1-8.55-10.8-6.3-12 2.25-1.2 6.9 9.3 6.75 12-.09 1.5-.45 0-.45 0z"/>
        <path fill="#F6C526" fill-rule="nonzero" stroke="#274960" stroke-width=".9" d="M20.88 15.25c-4.23-4.35-2.97-14.19-.51-13.53 2.94.75 2.22 11.37.93 13.74-.75 1.32-.42-.21-.42-.21z"/>
        <path fill="url(#a)" fill-rule="nonzero" stroke="#274960" stroke-width=".9" d="M11.82 47.01c-1.65 7.05-8.7 7.65-11.55 10.05 1.8 1.95 5.25 2.1 5.25 2.1s-1.05 3.9 0 5.55c1.95-.75 4.8-3.45 4.8-3.45s1.35 2.4 3.3 3.3c1.2-2.4-.45-8.7 13.2-18.3 13.65-9.6-12.33-10.77-15 .75z" transform="translate(0 1)"/>
        <path fill="#F6C526" fill-rule="nonzero" stroke="#274960" stroke-width=".9" d="M27.96 43.96c-1.8-2.55-.87-8.7 1.56-14.25 3-6.9 9.9-7.2 13.65-2.55 3.39 4.23.9 11.1-2.25 14.1s-9.69 7.32-12.96 2.7z"/>
        <path fill="#F6C526" fill-rule="nonzero" stroke="#274960" stroke-width=".9" d="M14.97 27.46c-2.7-7.65-1.2-17.91 10.8-18.09 13.41-.21 12.3 12.39 11.25 14.94 4.35 3.84 5.94 16.44-5.04 22.44-8.67 4.71-17.01-.24-17.76-6.24s.75-13.05.75-13.05z"/>
        <path fill="#D18B27" fill-rule="nonzero" d="M16.23 28.48c.72-.48 3.6.06 4.86.48 3.63 1.17 3.57 9.9 6 12.45 3 3.15 7.92 1.65 11.46-2.04-1.11 2.31-3.06 5.04-6.3 6.81-8.67 4.71-16.86.51-17.76-6.24-.33-2.58-1.02-9.66 1.74-11.46z"/>
        <g fill-rule="nonzero">
            <path fill="#FFF" stroke="#274960" stroke-width=".9" d="M26.37 19.54c0 2.79-2.1 5.04-4.68 5.04-2.58 0-4.68-2.25-4.68-5.04s2.1-5.04 4.68-5.04c2.58 0 4.68 2.25 4.68 5.04z"/>
            <path fill="#323232" d="M25.14 19.63c0 1.5-1.14 2.7-2.52 2.7-1.38 0-2.52-1.23-2.52-2.7 0-1.5 1.14-2.7 2.52-2.7 1.38 0 2.52 1.2 2.52 2.7z"/>
            <path fill="#FFF" d="M25.44 19.18c0 .78-.6 1.44-1.35 1.44-.75 0-1.35-.63-1.35-1.44 0-.78.6-1.44 1.35-1.44.75 0 1.35.66 1.35 1.44z"/>
        </g>
        <path fill="url(#b)" fill-rule="nonzero" stroke="#274960" stroke-width=".9" d="M8.55 48.96c-2.31-2.1-1.86-13.2.54-18.75 3-6.9 9.9-7.2 13.65-2.55 3.39 4.23.9 11.1-2.25 14.1s-9.54 9.39-11.94 7.2z" transform="translate(0 1)"/>
        <path fill="#E8C08A" fill-rule="nonzero" stroke="#274960" stroke-width=".9" d="M26.82 51.25h8.88s1.35-5.37-4.26-5.61c-5.58-.24-4.62 5.61-4.62 5.61z"/>
        <path fill="#E8C08A" fill-rule="nonzero" stroke="#274960" stroke-width=".9" d="M18.42 51.25h8.88s1.35-5.37-4.26-5.61c-5.58-.24-4.62 5.61-4.62 5.61z"/>
        <g fill-rule="nonzero">
            <path fill="#FFF" stroke="#274960" stroke-width=".9" d="M39.87 19.54c0 2.79-2.1 5.04-4.68 5.04-2.58 0-4.68-2.25-4.68-5.04s2.1-5.04 4.68-5.04c2.58 0 4.68 2.25 4.68 5.04z"/>
            <path fill="#323232" d="M38.64 19.63c0 1.5-1.14 2.7-2.52 2.7-1.38 0-2.52-1.23-2.52-2.7 0-1.5 1.14-2.7 2.52-2.7 1.38 0 2.52 1.2 2.52 2.7z"/>
            <path fill="#FFF" d="M38.94 19.18c0 .78-.6 1.44-1.35 1.44-.75 0-1.35-.63-1.35-1.44 0-.78.6-1.44 1.35-1.44.75 0 1.35.66 1.35 1.44z"/>
        </g>
        <path fill="#CDA789" fill-rule="nonzero" stroke="#483F1E" stroke-linecap="round" stroke-linejoin="round" stroke-width=".9" d="M28.47 16.51c5.85-.3 6.45 8.25 3.6 11.25-.75 3.75-5.91 1.89-6-1.59-.06-1.44-.45-9.51 2.4-9.66z"/>
        <path stroke="#483F1E" stroke-linecap="round" stroke-linejoin="round" stroke-width=".9" d="M26.25 23.74c.81 1.29 2.73 1.14 3.3 1.89.9 1.23.66 2.46 2.49 2.1"/>
        <path fill="#946627" fill-rule="nonzero" d="M8.82 49.66s.39-5.04.09-5.61c-.15-.3-.96 3.42-.9 3.96.06.54.81 1.65.81 1.65zM10.02 49.96c.84-1.5 1.14-4.59 1.59-4.41.45.21-.09 3.84-.45 4.05-.36.21-1.14.36-1.14.36z"/>
    </g>
</svg>
