<svg xmlns="http://www.w3.org/2000/svg" width="55" height="65" viewBox="0 0 55 65">
    <defs>
        <radialGradient id="a" cx="73.638%" cy="85.648%" r="51.123%" fx="73.638%" fy="85.648%" gradientTransform="matrix(1 0 0 .74283 0 .22)">
            <stop offset="0%" stop-color="#8CC7FC"/>
            <stop offset="55.29%" stop-color="#6DB3F3"/>
        </radialGradient>
    </defs>
    <g fill="none" fill-rule="evenodd">
        <path fill="#95C67C" fill-rule="nonzero" stroke="#376281" stroke-linecap="round" stroke-linejoin="round" stroke-width=".9" d="M27.31 46c-3.09.42-5.07-3.81-4.41-8.61.69-4.8 5.94-13.71 12.09-13.23 6.15.45 6.84 8.46 3.42 12.78-3.39 4.35-8.49 8.73-11.1 9.06z"/>
        <path fill="#6DB3F3" fill-rule="nonzero" stroke="#274960" stroke-linecap="round" stroke-linejoin="round" stroke-width=".9" d="M21.46 10.3c1.38-.69-3.12-10.32-5.88-8.97-2.31 1.14 2.91 10.44 5.88 8.97z"/>
        <path fill="#E8C08A" fill-rule="nonzero" stroke="#274960" stroke-linecap="round" stroke-linejoin="round" stroke-width=".9" d="M27.85 50.95h8.88s1.35-5.37-4.26-5.61c-5.58-.24-4.62 5.61-4.62 5.61z"/>
        <path fill="#3D7EAE" fill-rule="nonzero" stroke="#274960" stroke-linecap="round" stroke-linejoin="round" stroke-width=".9" d="M13.99 44.83C6.7 54.88-.17 61.27 1.21 62.86c1.38 1.59 5.7-.69 9.36-4.8-3.66 4.35-4.56 5.01-2.52 5.7 2.04.69 11.88-7.98 15.51-13.71 3.66-5.7 1.59-7.53 1.59-7.53l-11.16 2.31z"/>
        <path fill="#6DB3F3" fill-rule="nonzero" stroke="#274960" stroke-linecap="round" stroke-linejoin="round" stroke-width=".9" d="M17.56 13.84c-3.21 1.83-7.38 3.3-7.59 1.26-.27-2.31 6.63-5.25 7.29-2.97.72 2.28.3 1.71.3 1.71z"/>
        <path fill="#6DB3F3" fill-rule="nonzero" stroke="#274960" stroke-linecap="round" stroke-linejoin="round" stroke-width=".9" d="M19.12 11.44c-1.26 1.68-11.25-3.18-9.81-5.7 1.32-2.34 11.85 2.94 9.81 5.7z"/>
        <path fill="url(#a)" fill-rule="nonzero" stroke="#274960" stroke-linecap="round" stroke-linejoin="round" stroke-width=".9" d="M14.58 27.84C12.84 25.98 9.27 11.1 21.9 7.77c9.45-2.49 19.41 5.58 15.21 11.52-3.42 4.83 3.75 18.15-5.13 24-7.05 4.65-18.42 3.9-21.6-1.41-3.39-5.7.54-8.31 4.2-14.04z" transform="translate(1 1)"/>
        <path fill="#5591C6" fill-rule="nonzero" d="M15.04 16.12c-.81 2.4-1.44 6.36-.36 9.54.81 2.34 2.19.06 2.19.06s-1.98-3.9-1.83-9.6zM18.25 28.3c1.8 13.17 8.94 17.28 15.6 14.76-4.89 4.56-18.03 6.3-22.38-.96-2.7-4.47 2.97-10.83 6.78-13.8z"/>
        <path fill="#95C67C" fill-rule="nonzero" stroke="#376281" stroke-linecap="round" stroke-linejoin="round" stroke-width=".9" d="M12.16 46c-3.09.42-5.07-3.81-4.41-8.61.69-4.8 5.94-13.71 12.09-13.23 6.15.45 6.84 8.46 3.42 12.78-3.42 4.35-8.49 8.73-11.1 9.06z"/>
        <path fill="#73AF54" fill-rule="nonzero" d="M12.25 45.55c-3 .39-4.68-3.66-3.99-8.31.72-4.8 4.95-9.66 5.61-10.05.72-.42 2.67-3.21 6.06 1.35 2.1 2.85 1.71 9.57-3.9 14.7-1.02.93-2.43 2.13-3.78 2.31z"/>
        <path fill="#FFF" fill-rule="nonzero" d="M8.65 34.99c1.59-.33 8.58-5.16 8.79-4.65.9 2.22-9.48 8.04-9.48 8.04s.18-2.1.69-3.39z"/>
        <path fill="#D39D6D" fill-rule="nonzero" stroke="#5B4E43" stroke-linecap="round" stroke-linejoin="round" stroke-width=".9" d="M34 28.27c-.93-1.2-1.05-4.41-.06-5.58.45-3.87 1.68-7.95 3.45-7.68 5.07-.24 17.1 4.26 17.1 14.88 0 2.16-3.78-2.79-7.38-2.79-3.6.03-10.83 2.04-13.11 1.17z"/>
        <path fill="#AB815A" fill-rule="nonzero" d="M46.84 26.65c-3.6 0-10.47 1.98-12.54 1.26-.96-.96-.78-3.99.09-5.31.06-.57.18-1.29.24-1.65.72-1.2 12.03-.57 15.81 6.81-1.29-.84-2.04-1.11-3.6-1.11z"/>
        <path stroke="#5B4E43" stroke-linecap="round" stroke-linejoin="round" stroke-width=".9" d="M33.88 22.66c3.6 0 10.83 1.8 13.83 4.5"/>
        <path fill="#E8C08A" fill-rule="nonzero" stroke="#274960" stroke-linecap="round" stroke-linejoin="round" stroke-width=".9" d="M20.08 50.95h8.88s1.35-5.37-4.26-5.61c-5.61-.24-4.62 5.61-4.62 5.61z"/>
        <path fill="#F3D0B2" fill-rule="nonzero" d="M37.51 16.18c-1.11.06-1.29.93 3.78 1.65 5.55.78 11.34 7.95 11.25 7.68-1.02-3.3-6.75-9.78-15.03-9.33z"/>
        <path fill="#FFF" fill-rule="nonzero" d="M7.96 40.06c1.02-.45 8.91-5.97 9.09-5.61.21.33 0 2.91-8.61 8.04-.27-.63-.48-2.43-.48-2.43z"/>
        <path fill="#FFF" fill-rule="nonzero" stroke="#274960" stroke-linecap="round" stroke-linejoin="round" stroke-width=".9" d="M33.97 20.44c0 3.66-2.97 6.63-6.63 6.63-3.66 0-6.63-2.97-6.63-6.63 0-3.66 2.97-6.63 6.63-6.63 3.66 0 6.63 2.97 6.63 6.63z"/>
        <path fill="#323232" fill-rule="nonzero" d="M32.26 20.56a3.56 3.56 0 0 1-3.57 3.57 3.56 3.56 0 0 1-3.57-3.57 3.56 3.56 0 0 1 3.57-3.57 3.56 3.56 0 0 1 3.57 3.57z"/>
        <path fill="#FFF" fill-rule="nonzero" d="M32.68 19.96c0 1.05-.84 1.89-1.89 1.89-1.05 0-1.89-.84-1.89-1.89 0-1.05.84-1.89 1.89-1.89 1.05 0 1.89.84 1.89 1.89z"/>
    </g>
</svg>
