<svg xmlns="http://www.w3.org/2000/svg" width="45" height="59" viewBox="0 0 45 59">
    <g fill="none" fill-rule="evenodd">
        <path fill="#CB76D7" d="M16.607 42.438c8.836 1.791 16.282-2.313 20.607-7.625 4.505-5.534 4.385-14.048.253-16.021-4.853-2.317-10.006 1.197-13.489 7.733-3.065 5.753-5.302 12.797-7.37 15.913"/>
        <path stroke="#3B4C63" stroke-linecap="round" stroke-linejoin="round" stroke-width=".9" d="M16.607 42.438c8.836 1.791 16.282-2.313 20.607-7.625 4.505-5.534 4.385-14.048.253-16.021-4.853-2.317-10.006 1.197-13.489 7.733-3.065 5.753-5.302 12.797-7.37 15.913z"/>
        <path fill="#9066AA" d="M19.662 34.426C16.045 41.734 8.2 51.49 1.69 53.417c6.166 2.55 18.158-.671 25.846-19.679-1.27-6.895-7.875.688-7.875.688"/>
        <path stroke="#3B4C63" stroke-linecap="round" stroke-linejoin="round" stroke-width=".9" d="M19.662 34.426C16.045 41.734 8.2 51.49 1.69 53.417c6.166 2.55 18.158-.671 25.846-19.679-1.27-6.895-7.875.688-7.875.688z"/>
        <path fill="#C76480" d="M26.35 4.034C15.026.745 5.094 11.607 10.809 13.072c4.541 1.164 2.381-9.01 11.941-7.137 9.56 1.873 3.6-1.9 3.6-1.9"/>
        <path stroke="#274960" stroke-linecap="round" stroke-linejoin="round" stroke-width=".9" d="M26.35 4.034C15.026.745 5.094 11.607 10.809 13.072c4.541 1.164 2.381-9.01 11.941-7.137 9.56 1.873 3.6-1.9 3.6-1.9z"/>
        <path fill="#F289A7" d="M26.05 3.484c-12.1-6.75-23.684 2.98-19.8 6.05 4.3 3.4 7.3-8.5 15.8-4.5 8.815 4.149 4-1.55 4-1.55"/>
        <path stroke="#274960" stroke-linecap="round" stroke-linejoin="round" stroke-width=".9" d="M26.05 3.484c-12.1-6.75-23.684 2.98-19.8 6.05 4.3 3.4 7.3-8.5 15.8-4.5 8.815 4.149 4-1.55 4-1.55z"/>
        <path fill="#CB76D7" d="M20.35 40.835c-2.5 6.7-13.5 15.5-20.2 16.6 5.8 3.3 23.7-.7 29.7-18.9-.4-7.001-9.5 2.3-9.5 2.3"/>
        <path stroke="#3B4C63" stroke-linecap="round" stroke-linejoin="round" stroke-width=".9" d="M20.35 40.835c-2.5 6.7-13.5 15.5-20.2 16.6 5.8 3.3 23.7-.7 29.7-18.9-.4-7.001-9.5 2.3-9.5 2.3z"/>
        <path fill="#F289A7" d="M17.85 21.134c-3.9-4.8-1.163-19.15 10.3-19.15 10.05 0 10.8 11.55 8.7 15.45 1.2 4.65 2.538 22.589-13.95 23.3-12.75.55-9.75-4.7-8.55-10.85 1.2-6.15 3.5-8.75 3.5-8.75"/>
        <path stroke="#274960" stroke-linecap="round" stroke-linejoin="round" stroke-width=".9" d="M17.85 21.134c-3.9-4.8-1.163-19.15 10.3-19.15 10.05 0 10.8 11.55 8.7 15.45 1.2 4.65 2.538 22.589-13.95 23.3-12.75.55-9.75-4.7-8.55-10.85 1.2-6.15 3.5-8.75 3.5-8.75z"/>
        <path fill="#C76480" d="M15.293 27.149c1.607 7.686 11.207 12.786 18.144 8.36-4.125 4.726-8.323 4.702-10.612 4.8-3.02.13-8.384.301-9.523-3.397-.796-2.585.686-7.616 1.991-9.763M33.4 18.934c-1.9 2.05-6.158 4.202-9.75 1.8-6.55-4.379-2.85-14.7 5.55-13.95 3.183.285-1.582 5.383-.45 8.4.918 2.446 2.3 3.1 4.65 3.75"/>
        <path stroke="#3E1E44" stroke-linecap="round" stroke-linejoin="round" stroke-width="2.165" d="M28.215 14.477a3.969 3.969 0 0 1 5.864-5.326"/>
        <path fill="#CB76D7" d="M2.807 42.438c8.836 1.791 16.282-2.313 20.607-7.625 4.505-5.534 4.385-14.048.253-16.021-4.853-2.317-10.006 1.197-13.489 7.733-3.065 5.753-5.302 12.797-7.37 15.913"/>
        <path stroke="#3B4C63" stroke-linecap="round" stroke-linejoin="round" stroke-width=".9" d="M2.807 42.438c8.836 1.791 16.282-2.313 20.607-7.625 4.505-5.534 4.385-14.048.253-16.021-4.853-2.317-10.006 1.197-13.489 7.733-3.065 5.753-5.302 12.797-7.37 15.913z"/>
        <path fill="#DCB180" d="M28.648 44.067h6.003s.904-5.36-2.878-5.603c-3.782-.244-3.125 5.603-3.125 5.603"/>
        <path stroke="#274960" stroke-linecap="round" stroke-linejoin="round" stroke-width=".9" d="M28.648 44.067h6.003s.904-5.36-2.878-5.603c-3.782-.244-3.125 5.603-3.125 5.603z"/>
        <path fill="#DCB180" d="M22.497 44.067H28.5s.904-5.36-2.878-5.603c-3.783-.244-3.125 5.603-3.125 5.603"/>
        <path stroke="#274960" stroke-linecap="round" stroke-linejoin="round" stroke-width=".9" d="M22.497 44.067H28.5s.904-5.36-2.878-5.603c-3.783-.244-3.125 5.603-3.125 5.603z"/>
        <path fill="#FFF" d="M21.723 36.08C14.273 35.688 9.91 28 11.182 29.025c2.33 1.881 8.67 6.096 12.414 4.922a26.494 26.494 0 0 1-1.873 2.135M24.635 32.114c-7.574.126-12.013-6.84-10.74-5.944 3.406 2.4 8.485 4.743 11.817 3.315-.57 1.74-1.077 2.63-1.077 2.63"/>
        <path fill="#CB76D7" d="M2.807 42.438c3.325-2.768 5.803-4.994 6.672-6.745"/>
        <path stroke="#3B4C63" stroke-linecap="round" stroke-linejoin="round" stroke-width=".9" d="M2.807 42.438c3.325-2.768 5.803-4.994 6.672-6.745"/>
        <path fill="#CDA789" d="M36.7 17.134c3.6-.6 3.617 1.767 4.95 2.4 2.702-.036 4.2-12-4.5-11.175-.075.6-1.05 6.525-.45 8.775"/>
        <path stroke="#483F1E" stroke-linecap="round" stroke-linejoin="round" stroke-width=".9" d="M36.7 17.134c3.6-.6 3.617 1.767 4.95 2.4 2.702-.036 4.2-12-4.5-11.175-.075.6-1.05 6.525-.45 8.775zM36.7 13.61c1.85 1.224 5.15 1.224 4.45 5.424"/>
        <path fill="#FFF" d="M36.15 12.435a4.4 4.4 0 1 1-8.8 0 4.4 4.4 0 0 1 8.8 0"/>
        <path stroke="#924C7D" stroke-linecap="round" stroke-linejoin="round" stroke-width=".9" d="M36.15 12.435a4.4 4.4 0 1 1-8.8 0 4.4 4.4 0 0 1 8.8 0z"/>
        <path fill="#323232" d="M35.15 12.685a2.05 2.05 0 1 1-4.1-.001 2.05 2.05 0 0 1 4.1 0"/>
        <path fill="#FFF" d="M35.4 11.884a1.2 1.2 0 1 1-2.4 0 1.2 1.2 0 0 1 2.4 0"/>
        <path stroke="#3E1E44" stroke-linecap="round" stroke-linejoin="round" stroke-width=".9" d="M28.309 15.177a4.4 4.4 0 0 1 6.501-5.904"/>
    </g>
</svg>
